<svg fill="currentColor" height="1em" viewBox="0 0 24 24" width="1em" xmlns="http://www.w3.org/2000/svg"><title>无问芯穹 (Infini)</title><path d="M18.6 6.62c-1.44 0-2.8.56-3.77 1.53L12 10.66 9.17 8.15C8.2 7.18 6.84 6.62 5.4 6.62 2.42 6.62 0 9.04 0 12s2.42 5.38 5.4 5.38c1.44 0 2.8-.56 3.77-1.53l2.83-2.5 2.83 2.5c.97.97 2.33 1.53 3.77 1.53 2.98 0 5.4-2.42 5.4-5.38s-2.42-5.38-5.4-5.38zM5.4 15c-1.66 0-3-1.34-3-3s1.34-3 3-3 3 1.34 3 3-1.34 3-3 3zm13.2 0c-1.66 0-3-1.34-3-3s1.34-3 3-3 3 1.34 3 3-1.34 3-3 3z"/></svg>