<svg fill="currentColor" height="1em" viewBox="0 0 24 24" width="1em" xmlns="http://www.w3.org/2000/svg"><title>Mistral</title><rect x="2" y="2" width="4" height="4"/><rect x="10" y="2" width="4" height="4"/><rect x="18" y="2" width="4" height="4"/><rect x="2" y="6" width="4" height="4"/><rect x="6" y="6" width="4" height="4"/><rect x="10" y="6" width="4" height="4"/><rect x="14" y="6" width="4" height="4"/><rect x="18" y="6" width="4" height="4"/><rect x="2" y="10" width="4" height="4"/><rect x="10" y="10" width="4" height="4"/><rect x="18" y="10" width="4" height="4"/><rect x="2" y="14" width="4" height="4"/><rect x="6" y="14" width="4" height="4"/><rect x="10" y="14" width="4" height="4"/><rect x="14" y="14" width="4" height="4"/><rect x="18" y="14" width="4" height="4"/><rect x="2" y="18" width="4" height="4"/><rect x="10" y="18" width="4" height="4"/><rect x="18" y="18" width="4" height="4"/></svg>