<svg fill="currentColor" height="1em" viewBox="0 0 24 24" width="1em" xmlns="http://www.w3.org/2000/svg"><title>NVIDIA</title><path d="M8.948 8.798v-1.43c.186-.012.37-.018.556-.018 3.156 0 5.718 2.562 5.718 5.718 0 .186-.006.37-.018.556h1.43c.012-.186.018-.37.018-.556 0-4.262-3.456-7.718-7.718-7.718-.186 0-.37.006-.556.018v1.43c.186-.012.37-.018.556-.018 3.468 0 6.288 2.82 6.288 6.288 0 .186-.006.37-.018.556h1.43c.012-.186.018-.37.018-.556 0-4.574-3.714-8.288-8.288-8.288-.186 0-.37.006-.556.018v1.43c.186-.012.37-.018.556-.018 3.78 0 6.858 3.078 6.858 6.858 0 .186-.006.37-.018.556h1.43c.012-.186.018-.37.018-.556 0-4.886-3.972-8.858-8.858-8.858-.186 0-.37.006-.556.018v1.43c.186-.012.37-.018.556-.018 4.092 0 7.428 3.336 7.428 7.428 0 .186-.006.37-.018.556h1.43c.012-.186.018-.37.018-.556 0-5.198-4.23-9.428-9.428-9.428-.186 0-.37.006-.556.018z"/></svg>